Coordinates
version=1
nRows=9
nColumns=24
inDegrees=yes

Units are S.I. units (second, meters, Newtons, ...)
If the header above contains a line with 'inDegrees', this indicates whether rotational values are in degrees (yes) or radians (no).

endheader
time	pelvis_tilt	pelvis_list	pelvis_rotation	pelvis_tx	pelvis_ty	pelvis_tz	hip_flexion_r	hip_adduction_r	hip_rotation_r	knee_angle_r	ankle_angle_r	subtalar_angle_r	mtp_angle_r	hip_flexion_l	hip_adduction_l	hip_rotation_l	knee_angle_l	ankle_angle_l	subtalar_angle_l	mtp_angle_l	lumbar_extension	lumbar_bending	lumbar_rotation
      0.28000000	      3.65224918	     -1.33823070	      4.85227089	     -0.43330928	      0.71255094	     -0.30049888	     26.22802693	      2.13398205	     -7.87863333	    -25.71587308	      1.52922684	    -13.62698686	      0.00000000	     -6.95458110	     -5.61949712	     -4.19791107	    -46.46654498	     -3.63841539	    -15.53308003	      0.00000000	    -11.39528675	      0.69591042	      3.75128402
      0.28666667	      3.59776008	     -1.53880696	      4.91936411	     -0.42522518	      0.71333120	     -0.29941225	     25.94958826	      2.55483154	     -7.58634078	    -26.26482885	      1.88009939	    -14.26419225	      0.00000000	     -5.60306881	     -6.07050015	     -4.11454894	    -48.73448770	     -5.28110708	    -17.44810779	      0.00000000	    -11.26587907	      0.93085119	      3.76956866
      0.29333333	      3.59597847	     -1.70796314	      4.99317753	     -0.41725757	      0.71427700	     -0.29848537	     25.56871789	      2.93730554	     -7.31570664	    -26.75209419	      2.39995836	    -14.78356896	      0.00000000	     -4.26366281	     -6.47173788	     -4.03885384	    -50.90335743	     -6.44285807	    -19.07846624	      0.00000000	    -11.22001689	      1.19001125	      3.81418863
      0.30000000	      3.50823684	     -1.86494616	      5.10648366	     -0.40935998	      0.71515381	     -0.29746977	     25.21162554	      3.29395316	     -7.16226055	    -27.11201155	      2.94076106	    -15.26661930	      0.00000000	     -2.74471083	     -6.84606993	     -3.85273887	    -53.06292243	     -7.44174023	    -20.91021802	      0.00000000	    -11.08738358	      1.34113187	      3.85801663
      0.30666667	      3.45981763	     -1.84041634	      5.25941025	     -0.40171746	      0.71626285	     -0.29685193	     24.79660647	      3.39735662	     -7.09182526	    -27.47666785	      3.39026197	    -15.63998204	      0.00000000	     -1.25003769	     -6.83563135	     -3.40436663	    -55.02842234	     -8.83071021	    -23.67095716	      0.00000000	    -11.05791841	      1.36009549	      3.71877428
      0.31333333	      3.43611497	     -1.95256938	      5.31909783	     -0.39398328	      0.71731538	     -0.29593049	     24.26112739	      3.72876901	     -6.96173163	    -27.66808752	      4.19733709	    -15.89014372	      0.00000000	      0.25710389	     -7.14407564	     -3.32022737	    -56.96791285	     -8.80807815	    -24.49305474	      0.00000000	    -11.02202565	      1.49759992	      3.90506981
      0.32000000	      3.39042455	     -1.97719695	      5.41170772	     -0.38641186	      0.71843474	     -0.29511468	     23.70718231	      3.93468035	     -6.92435448	    -27.79402558	      4.93959429	    -16.06388542	      0.00000000	      1.82439963	     -7.28333125	     -3.12119225	    -58.76245167	     -8.66919784	    -25.31484280	      0.00000000	    -10.99945706	      1.51110891	      4.02634007
      0.32666667	      3.27185129	     -1.92151880	      5.56234001	     -0.37906465	      0.71953703	     -0.29477373	     23.25494554	      3.92648152	     -7.11180003	    -27.96067787	      5.60396530	    -15.97301290	      0.00000000	      3.54805450	     -7.21760417	     -2.83760836	    -60.47732687	     -8.56746643	    -26.07050734	      0.00000000	    -10.91658220	      1.54457911	      3.99375906
      0.33333333	      3.20937578	     -1.83484497	      5.62471649	     -0.37169144	      0.72076451	     -0.29431762	     22.63467782	      3.95392233	     -7.18315491	    -27.95844757	      6.45146774	    -15.89456539	      0.00000000	      5.14230282	     -7.08696794	     -2.64196695	    -61.93522038	     -8.09280539	    -26.44173211	      0.00000000	    -10.91558506	      1.50197996	      4.10444328
